<svg width="22" height="22" viewBox="0 0 22 22" fill="none" xmlns="http://www.w3.org/2000/svg">
<path d="M15.3542 3.26301V1.83301C15.3542 1.45717 15.0425 1.14551 14.6667 1.14551C14.2909 1.14551 13.9792 1.45717 13.9792 1.83301V3.20801H8.02088V1.83301C8.02088 1.45717 7.70921 1.14551 7.33338 1.14551C6.95755 1.14551 6.64588 1.45717 6.64588 1.83301V3.26301C4.17088 3.49217 2.97005 4.96801 2.78671 7.15884C2.76838 7.42467 2.98838 7.64467 3.24505 7.64467H18.755C19.0209 7.64467 19.2409 7.41551 19.2134 7.15884C19.03 4.96801 17.8292 3.49217 15.3542 3.26301Z" fill="#FEF2C5"/>
<path d="M18.3333 9.01953H3.66667C3.1625 9.01953 2.75 9.43203 2.75 9.9362V15.5829C2.75 18.3329 4.125 20.1662 7.33333 20.1662H14.6667C17.875 20.1662 19.25 18.3329 19.25 15.5829V9.9362C19.25 9.43203 18.8375 9.01953 18.3333 9.01953ZM8.4425 16.692C8.39667 16.7287 8.35083 16.7745 8.305 16.802C8.25 16.8387 8.195 16.8662 8.14 16.8845C8.085 16.912 8.03 16.9304 7.975 16.9395C7.91083 16.9487 7.85583 16.9579 7.79167 16.9579C7.6725 16.9579 7.55333 16.9304 7.44333 16.8845C7.32417 16.8387 7.2325 16.7745 7.14083 16.692C6.97583 16.5179 6.875 16.2795 6.875 16.0412C6.875 15.8029 6.97583 15.5645 7.14083 15.3904C7.2325 15.3079 7.32417 15.2437 7.44333 15.1979C7.60833 15.1245 7.79167 15.1062 7.975 15.1429C8.03 15.152 8.085 15.1704 8.14 15.1979C8.195 15.2162 8.25 15.2437 8.305 15.2804C8.35083 15.317 8.39667 15.3537 8.4425 15.3904C8.6075 15.5645 8.70833 15.8029 8.70833 16.0412C8.70833 16.2795 8.6075 16.5179 8.4425 16.692ZM8.4425 13.4837C8.26833 13.6487 8.03 13.7495 7.79167 13.7495C7.55333 13.7495 7.315 13.6487 7.14083 13.4837C6.97583 13.3095 6.875 13.0712 6.875 12.8329C6.875 12.5945 6.97583 12.3562 7.14083 12.182C7.3975 11.9254 7.80083 11.8429 8.14 11.9895C8.25917 12.0354 8.36 12.0995 8.4425 12.182C8.6075 12.3562 8.70833 12.5945 8.70833 12.8329C8.70833 13.0712 8.6075 13.3095 8.4425 13.4837ZM11.6508 16.692C11.4767 16.857 11.2383 16.9579 11 16.9579C10.7617 16.9579 10.5233 16.857 10.3492 16.692C10.1842 16.5179 10.0833 16.2795 10.0833 16.0412C10.0833 15.8029 10.1842 15.5645 10.3492 15.3904C10.6883 15.0512 11.3117 15.0512 11.6508 15.3904C11.8158 15.5645 11.9167 15.8029 11.9167 16.0412C11.9167 16.2795 11.8158 16.5179 11.6508 16.692ZM11.6508 13.4837C11.605 13.5204 11.5592 13.557 11.5133 13.5937C11.4583 13.6304 11.4033 13.6579 11.3483 13.6762C11.2933 13.7037 11.2383 13.722 11.1833 13.7312C11.1192 13.7404 11.0642 13.7495 11 13.7495C10.7617 13.7495 10.5233 13.6487 10.3492 13.4837C10.1842 13.3095 10.0833 13.0712 10.0833 12.8329C10.0833 12.5945 10.1842 12.3562 10.3492 12.182C10.4317 12.0995 10.5325 12.0354 10.6517 11.9895C10.9908 11.8429 11.3942 11.9254 11.6508 12.182C11.8158 12.3562 11.9167 12.5945 11.9167 12.8329C11.9167 13.0712 11.8158 13.3095 11.6508 13.4837ZM14.8592 16.692C14.685 16.857 14.4467 16.9579 14.2083 16.9579C13.97 16.9579 13.7317 16.857 13.5575 16.692C13.3925 16.5179 13.2917 16.2795 13.2917 16.0412C13.2917 15.8029 13.3925 15.5645 13.5575 15.3904C13.8967 15.0512 14.52 15.0512 14.8592 15.3904C15.0242 15.5645 15.125 15.8029 15.125 16.0412C15.125 16.2795 15.0242 16.5179 14.8592 16.692ZM14.8592 13.4837C14.8133 13.5204 14.7675 13.557 14.7217 13.5937C14.6667 13.6304 14.6117 13.6579 14.5567 13.6762C14.5017 13.7037 14.4467 13.722 14.3917 13.7312C14.3275 13.7404 14.2633 13.7495 14.2083 13.7495C13.97 13.7495 13.7317 13.6487 13.5575 13.4837C13.3925 13.3095 13.2917 13.0712 13.2917 12.8329C13.2917 12.5945 13.3925 12.3562 13.5575 12.182C13.6492 12.0995 13.7408 12.0354 13.86 11.9895C14.025 11.9162 14.2083 11.8979 14.3917 11.9345C14.4467 11.9437 14.5017 11.962 14.5567 11.9895C14.6117 12.0079 14.6667 12.0354 14.7217 12.072C14.7675 12.1087 14.8133 12.1454 14.8592 12.182C15.0242 12.3562 15.125 12.5945 15.125 12.8329C15.125 13.0712 15.0242 13.3095 14.8592 13.4837Z" fill="#FEF2C5"/>
</svg>
