<svg width="23" height="20" viewBox="0 0 23 20" fill="none" xmlns="http://www.w3.org/2000/svg">
<path d="M11.5879 12.1062C12.6523 12.1062 13.5151 11.2429 13.5151 10.1781C13.5151 9.11323 12.6523 8.25 11.5879 8.25C10.5235 8.25 9.66064 9.11323 9.66064 10.1781C9.66064 11.2429 10.5235 12.1062 11.5879 12.1062Z" fill="#00D8FF"/>
<path d="M11.5877 14.5953C8.88114 14.5953 6.51624 14.2765 4.74641 13.6696C3.59852 13.2779 2.62338 12.7555 1.9285 12.1602C1.19139 11.5303 0.799805 10.8428 0.799805 10.1783C0.799805 8.90318 2.19724 7.65491 4.54294 6.84066C6.46249 6.17236 8.9656 5.7998 11.5839 5.7998C14.1561 5.7998 16.6246 6.16084 18.5327 6.82146C19.6498 7.20554 20.5904 7.70484 21.2584 8.25792C21.984 8.86477 22.3679 9.52923 22.3679 10.1783C22.3679 11.5034 20.8054 12.8438 18.287 13.6773C16.5056 14.2688 14.1254 14.5953 11.5877 14.5953ZM11.5877 6.7216C9.1038 6.7216 6.64677 7.08263 4.85007 7.70869C2.69249 8.46148 1.72503 9.49082 1.72503 10.1783C1.72503 10.8927 2.76543 12.0181 5.04586 12.7978C6.71972 13.37 8.98479 13.6735 11.5877 13.6735C14.0294 13.6735 16.306 13.3662 17.999 12.8016C20.3678 12.0142 21.4504 10.8889 21.4504 10.1783C21.4504 9.81345 21.174 9.38328 20.671 8.96463C20.0913 8.48069 19.2467 8.03899 18.2371 7.68948C16.4212 7.06727 14.0601 6.7216 11.5877 6.7216Z" fill="#00D8FF"/>
<path d="M7.21529 19.7878C6.8237 19.7878 6.47818 19.7033 6.1864 19.5343C5.08458 18.8967 4.70067 17.0608 5.1652 14.6219C5.54527 12.6209 6.47434 10.2703 7.78347 8.00037C9.06958 5.7727 10.6129 3.81389 12.137 2.48881C13.0277 1.71297 13.9299 1.14453 14.7438 0.844943C15.6306 0.518474 16.3984 0.518474 16.959 0.841102C18.1069 1.50172 18.4869 3.52967 17.9494 6.12605C17.5694 7.96964 16.6633 10.1935 15.3964 12.3943C14.0451 14.7371 12.5862 16.6268 11.1773 17.8597C10.2635 18.6586 9.32296 19.2424 8.463 19.5458C8.01382 19.7072 7.59152 19.7878 7.21529 19.7878ZM8.1789 8.23082L8.57817 8.46126C7.33814 10.6121 6.42059 12.9204 6.06739 14.7948C5.64125 17.0416 6.05203 18.3936 6.64326 18.7354C6.78914 18.8199 6.9811 18.866 7.21529 18.866C7.97927 18.866 9.18091 18.3821 10.5707 17.1684C11.9028 16.0046 13.2964 14.1918 14.5979 11.9372C15.8187 9.82091 16.6864 7.6931 17.0473 5.94554C17.5502 3.49894 17.1164 2.00103 16.4983 1.64383C16.1835 1.46331 15.6729 1.48636 15.0586 1.71297C14.3484 1.97414 13.546 2.48497 12.7398 3.18784C11.2924 4.44762 9.81437 6.32194 8.57817 8.46511L8.1789 8.23082Z" fill="#00D8FF"/>
<path d="M15.9606 19.7993C14.9164 19.7993 13.5919 19.1694 12.2098 17.9788C10.6665 16.6498 9.0963 14.6718 7.78332 12.4019C6.49338 10.1742 5.572 7.85824 5.18425 5.87254C4.95774 4.71262 4.91551 3.64871 5.0614 2.79221C5.22264 1.8589 5.60271 1.19444 6.16706 0.867967C7.31111 0.203507 9.25754 0.887171 11.2385 2.6501C12.6436 3.89836 14.1179 5.79572 15.3886 7.99266C16.7438 10.3356 17.6537 12.544 18.0146 14.3799C18.2487 15.5706 18.2871 16.6767 18.1221 17.5755C17.9455 18.5318 17.5462 19.2117 16.9703 19.5458C16.6824 19.7148 16.3407 19.7993 15.9606 19.7993ZM8.58186 11.941C9.82573 14.0919 11.3691 16.0392 12.8126 17.2797C14.544 18.77 15.9184 19.0926 16.5135 18.7469C17.1316 18.3897 17.5846 16.9264 17.1162 14.5604C16.7707 12.8244 15.8992 10.712 14.5939 8.4574C13.3692 6.34112 11.9603 4.52442 10.6281 3.34145C8.7623 1.68222 7.24969 1.30966 6.63159 1.66685C6.31678 1.84737 6.0826 2.30443 5.97126 2.94968C5.84457 3.6948 5.88297 4.64732 6.09028 5.69586C6.45883 7.5817 7.34183 9.79784 8.58186 11.941Z" fill="#00D8FF"/>
</svg>
