<svg width="22" height="22" viewBox="0 0 22 22" fill="none" xmlns="http://www.w3.org/2000/svg">
<path d="M5.26174 14.6663C5.36257 14.2172 5.17924 13.5755 4.85841 13.2547L2.63091 11.0272C1.93424 10.3305 1.65924 9.58801 1.86091 8.94634C2.07174 8.30468 2.72257 7.86467 3.69424 7.69967L6.55424 7.22301C6.96674 7.14967 7.47091 6.78301 7.66341 6.40717L9.24007 3.24467C9.69841 2.33717 10.3217 1.83301 11.0001 1.83301C11.6784 1.83301 12.3017 2.33717 12.7601 3.24467L14.3367 6.40717C14.4559 6.64551 14.7034 6.87467 14.9692 7.03051L5.09674 16.903C4.96841 17.0313 4.74841 16.9122 4.78507 16.7288L5.26174 14.6663Z" fill="#FEF2C5"/>
<path d="M17.1417 13.2547C16.8117 13.5847 16.6283 14.2172 16.7383 14.6664L17.3708 17.4256C17.6367 18.5714 17.4717 19.4331 16.9033 19.8456C16.6742 20.0106 16.3992 20.0931 16.0783 20.0931C15.6108 20.0931 15.0608 19.9189 14.4558 19.5614L11.77 17.9664C11.3483 17.7189 10.6516 17.7189 10.23 17.9664L7.54415 19.5614C6.52665 20.1572 5.65582 20.2581 5.09665 19.8456C4.88582 19.6897 4.72998 19.4789 4.62915 19.2039L15.7758 8.05724C16.1975 7.63558 16.7933 7.44308 17.3708 7.54391L18.2966 7.69974C19.2683 7.86474 19.9191 8.30474 20.13 8.94641C20.3316 9.58808 20.0566 10.3306 19.36 11.0272L17.1417 13.2547Z" fill="#FEF2C5"/>
</svg>
