<svg width="20" height="18" viewBox="0 0 20 18" fill="none" xmlns="http://www.w3.org/2000/svg">
<path fill-rule="evenodd" clip-rule="evenodd" d="M5 18C3.67392 18 2.40215 17.4732 1.46447 16.5355C0.526784 15.5979 0 14.3261 0 13V10C0 9.73478 0.105357 9.48043 0.292893 9.29289C0.48043 9.10536 0.734784 9 1 9C1.26522 9 1.51957 9.10536 1.70711 9.29289C1.89464 9.48043 2 9.73478 2 10V13C2 13.7956 2.31607 14.5587 2.87868 15.1213C3.44129 15.6839 4.20435 16 5 16H15C15.7956 16 16.5587 15.6839 17.1213 15.1213C17.6839 14.5587 18 13.7956 18 13V10C18 9.73478 18.1054 9.48043 18.2929 9.29289C18.4804 9.10536 18.7348 9 19 9C19.2652 9 19.5196 9.10536 19.7071 9.29289C19.8946 9.48043 20 9.73478 20 10V13C20 14.3261 19.4732 15.5979 18.5355 16.5355C17.5979 17.4732 16.3261 18 15 18H5Z" fill="#D6E0FF"/>
<path fill-rule="evenodd" clip-rule="evenodd" d="M5.28489 6.09988C5.19295 6.00596 5.12044 5.89484 5.07148 5.77287C5.02252 5.6509 4.99809 5.52048 4.99958 5.38906C5.00106 5.25764 5.02844 5.12781 5.08014 5.00698C5.13184 4.88615 5.20685 4.7767 5.30089 4.68488L9.80089 0.284878C9.98773 0.102252 10.2386 0 10.4999 0C10.7612 0 11.0121 0.102252 11.1989 0.284878L15.6989 4.68488C15.7948 4.7762 15.8716 4.88566 15.9249 5.00691C15.9781 5.12816 16.0068 5.25878 16.0092 5.39119C16.0115 5.5236 15.9876 5.65516 15.9387 5.77824C15.8898 5.90132 15.817 6.01346 15.7244 6.10816C15.6318 6.20286 15.5213 6.27822 15.3994 6.32988C15.2775 6.38154 15.1465 6.40846 15.014 6.40909C14.8816 6.40971 14.7504 6.38403 14.628 6.33352C14.5055 6.28302 14.3944 6.2087 14.3009 6.11488L11.4999 3.37588V11.9999C11.4999 12.2651 11.3945 12.5194 11.207 12.707C11.0195 12.8945 10.7651 12.9999 10.4999 12.9999C10.2347 12.9999 9.98032 12.8945 9.79278 12.707C9.60525 12.5194 9.49989 12.2651 9.49989 11.9999V3.37588L6.69989 6.11488C6.60597 6.20681 6.49485 6.27933 6.37288 6.32829C6.25091 6.37724 6.12049 6.40168 5.98907 6.40019C5.85765 6.39871 5.72782 6.37133 5.60699 6.31963C5.48616 6.26793 5.37671 6.19291 5.28489 6.09888V6.09988Z" fill="#D6E0FF"/>
</svg>
